Coordinates
version=1
nRows=6
nColumns=36
inDegrees=yes

Units are S.I. units (second, meters, Newtons, ...)
If the header above contains a line with 'inDegrees', this indicates whether rotational values are in degrees (yes) or radians (no).

endheader
time	pelvis_tilt	pelvis_list	pelvis_rotation	pelvis_tx	pelvis_ty	pelvis_tz	hip_flexion_r	hip_adduction_r	hip_rotation_r	knee_angle_r	knee_angle_r_beta	ankle_angle_r	subtalar_angle_r	mtp_angle_r	hip_flexion_l	hip_adduction_l	hip_rotation_l	knee_angle_l	knee_angle_l_beta	ankle_angle_l	subtalar_angle_l	mtp_angle_l	lumbar_extension	lumbar_bending	lumbar_rotation	arm_flex_r	arm_add_r	arm_rot_r	elbow_flex_r	pro_sup_r	arm_flex_l	arm_add_l	arm_rot_l	elbow_flex_l	pro_sup_l
      0.00000000	      3.28314954	      0.84512441	      4.08090554	     -0.11674933	      0.87676170	     -0.27465502	     23.31167585	     -3.82260915	     -0.41832786	      9.07309776	      0.15835543	     10.86443283	     -5.02061852	     -4.63169589	    -22.56791921	     -2.18291318	    -10.30125478	     14.04111567	      0.24506370	     12.68221456	     13.12161612	     -4.63169589	    -13.67637823	     -0.84167810	    -13.06912498	      0.63606860	     -2.59243086	     -6.80590493	     23.74312429	     89.83230434	      9.36695196	     -9.66248354	     14.53407297	     28.18431354	     88.25206817
      0.01000000	      3.30652000	      0.70996335	      4.49857147	     -0.10164605	      0.87545748	     -0.27292254	     22.92955214	     -3.57958249	     -0.83048451	      9.83620067	      0.17167409	      8.89288775	     -5.30539574	     -4.67359343	    -22.65835173	     -2.92569948	    -10.42946407	     15.57588701	      0.27185051	     11.65178143	     12.92669515	     -4.67359343	    -13.40171133	     -0.40799192	    -13.10292427	      0.21599220	     -2.59987044	     -6.91174139	     23.16682475	     89.62896777	      9.08852456	     -9.38766176	     14.45439970	     27.66742048	     88.38197059
      0.02000000	      3.26102048	      0.53455588	      4.78879161	     -0.08664086	      0.87412877	     -0.27087944	     22.48556532	     -3.09910671	     -0.06745088	     10.25557609	      0.17899357	      5.64232461	     -8.08561742	     -4.86571009	    -22.65870154	     -3.63773722	    -10.42005223	     17.11462899	      0.29870663	     10.59497426	     12.57211394	     -4.86571009	    -13.04321311	      0.02541626	    -13.02662503	     -0.12478814	     -2.60022904	     -6.91168733	     22.49434857	     88.83458502	      8.81048860	     -9.05723195	     13.94403752	     27.07566175	     89.03811628
      0.03000000	      3.28614301	      0.32494627	      5.11091307	     -0.07149058	      0.87303279	     -0.26892946	     22.17312011	     -2.72060890	     -0.44602077	     11.17584580	      0.19505531	      3.93156638	     -8.33006700	     -4.90250246	    -22.61534285	     -4.41034244	    -10.46780879	     18.82262091	      0.32851671	      9.26071699	     12.08077944	     -4.90250246	    -12.77212329	      0.51405357	    -12.94967420	     -0.48152486	     -2.63899654	     -6.98631656	     21.88843337	     88.64680829	      8.46842918	     -8.77945042	     13.74228536	     26.71694274	     89.09831776
      0.04000000	      3.45640827	      0.07982832	      5.29869390	     -0.05654705	      0.87233980	     -0.26676457	     21.74377149	     -2.20359759	     -0.25757614	     12.23757306	      0.21358594	      2.92792860	     -8.47592599	     -4.91578342	    -22.69225415	     -5.09274262	    -10.04806243	     20.52293525	      0.35819279	      8.08249460	     11.76459481	     -4.91578342	    -12.76777187	      1.06195510	    -12.68828276	     -0.77541979	     -2.70610679	     -7.02094368	     21.43220801	     88.56052263	      8.17129077	     -8.55351882	     13.61671845	     26.51351976	     89.09838043
      0.05000000	      3.14914266	     -0.16662965	      5.35113242	     -0.04169104	      0.87144460	     -0.26433573	     21.85805736	     -1.58189096	      0.33232414	     13.22479207	      0.23081616	     -0.36679892	    -12.13629179	     -5.05674632	    -21.90475189	     -5.63734440	     -9.79920667	     22.73801616	      0.39685325	      5.31343867	      8.50730558	     -5.05674632	    -12.10645355	      1.46493034	    -12.42288081	     -0.85646245	     -2.78710930	     -6.51672494	     20.25809136	     87.97912954	      7.76328746	     -8.13021378	     12.45949097	     25.97075284	     89.20605114
